<mxfile host="app.diagrams.net" modified="2023-05-19T08:26:59.961Z" agent="Mozilla/5.0 (Windows NT 10.0; Win64; x64) AppleWebKit/537.36 (KHTML, like Gecko) Chrome/113.0.0.0 Safari/537.36" version="21.3.2" etag="WGgS3sFFU4fb34lRg5VO" type="github">
  <diagram name="Страница 1" id="_QnXkcJKzm5vkJoLUhM0">
    <mxGraphModel>
      <root>
        <mxCell id="0" />
        <mxCell id="1" parent="0" />
      </root>
    </mxGraphModel>
  </diagram>
</mxfile>
